<?xml version="1.0" encoding="utf-8"?>
<!-- Generator: Adobe Illustrator 23.0.4, SVG Export Plug-In . SVG Version: 6.00 Build 0)  -->
<svg version="1.1" id="Capa_1" xmlns="http://www.w3.org/2000/svg" xmlns:xlink="http://www.w3.org/1999/xlink" x="0px" y="0px"
	 viewBox="0 0 26.1 26.1" style="enable-background:new 0 0 26.1 26.1;" xml:space="preserve">
<style type="text/css">
	.st0{fill:#696969;}
</style>
<title>icono_linkedin</title>
<path class="st0" d="M14.2,2.3c5.9,0.6,10.2,5.8,9.6,11.7c-0.5,5.1-4.5,9.1-9.6,9.6C8.3,24.2,3.1,19.9,2.5,14S6.3,2.9,12.1,2.3
	C12.8,2.3,13.5,2.3,14.2,2.3 M13.2,0.6C6.4,0.6,0.8,6.1,0.7,12.9S6.2,25.4,13,25.4S25.5,20,25.5,13.1c0-0.1,0-0.1,0-0.2
	C25.5,6.1,20,0.6,13.2,0.6C13.2,0.6,13.2,0.6,13.2,0.6z"/>
<g>
	<path class="st0" d="M7.9,10.2h2.5v8H7.9V10.2z M9.1,6.1c0.8,0,1.5,0.7,1.5,1.5c0,0.8-0.7,1.5-1.5,1.5C8.3,9.1,7.7,8.4,7.7,7.6
		C7.7,6.9,8.3,6.2,9.1,6.1"/>
	<path class="st0" d="M12,10.2h2.4v1.1l0,0c0.5-0.9,1.4-1.4,2.4-1.3c2.5,0,3,1.6,3,3.8v4.4h-2.5v-3.9c0-0.9,0-2.1-1.3-2.1
		c-1.3,0-1.5,1-1.5,2v4H12V10.2z"/>
</g>
</svg>
