<svg id="Capa_1" data-name="Capa 1" xmlns="http://www.w3.org/2000/svg" viewBox="0 0 25.4 25.4"><defs><style>.cls-1,.cls-2{fill:#696969;}.cls-2{fill-rule:evenodd;}</style></defs><title>icono</title><path class="cls-1" d="M12.6,2.3A10.7,10.7,0,1,1,1.9,12.9,10.7,10.7,0,0,1,12.6,2.3m0-1.7A12.4,12.4,0,1,0,25,12.9,12.4,12.4,0,0,0,12.6.6Z"/><path class="cls-2" d="M7.4,17.2a1.5,1.5,0,0,1-1-.9c-.4-1.2-.5-6.2.3-7.2a2.4,2.4,0,0,1,1.1-.6c2.2-.2,9.2-.2,10,.1a1.5,1.5,0,0,1,.9,1,15.6,15.6,0,0,1,0,6.8,1.9,1.9,0,0,1-.7.8C17.1,17.6,8.5,17.6,7.4,17.2ZM11,14.9l4-2.1-4-2.1Z"/></svg>