<svg id="Capa_1" data-name="Capa 1" xmlns="http://www.w3.org/2000/svg" viewBox="0 0 25.4 25.4"><defs><style>.cls-1{fill:#696969;}</style></defs><title>icono</title><path class="cls-1" d="M12.4,2A10.7,10.7,0,1,1,1.7,12.7,10.7,10.7,0,0,1,12.4,2m0-1.7a12.4,12.4,0,0,0,0,24.8A12.4,12.4,0,0,0,12.4.3Z"/><path class="cls-1" d="M19,9.5a3.4,3.4,0,0,0-1.1-2.3,4,4,0,0,0-2.4-1c-1.5,0-5.2-.1-6.4.1A3.4,3.4,0,0,0,6.2,8.9a35.6,35.6,0,0,0,0,7.3,3.3,3.3,0,0,0,2.6,2.9,43.3,43.3,0,0,0,7.2,0,3.3,3.3,0,0,0,2.9-2.6A41.1,41.1,0,0,0,19,9.5ZM17.8,16a2.3,2.3,0,0,1-2.1,2,38.5,38.5,0,0,1-6.8-.1A2.3,2.3,0,0,1,7.3,16a48.4,48.4,0,0,1,0-6.6A2.2,2.2,0,0,1,9.4,7.5a34.2,34.2,0,0,1,6.4,0,2.2,2.2,0,0,1,2,2.1A45.5,45.5,0,0,1,17.8,16ZM12.5,9.4a3.4,3.4,0,0,0,0,6.7,3.4,3.4,0,1,0,0-6.7Zm0,5.5a2.1,2.1,0,0,1-2.1-2.2,2.2,2.2,0,1,1,4.3,0A2.2,2.2,0,0,1,12.5,14.9Zm4.3-5.7a.7.7,0,0,1-.8.8.7.7,0,0,1-.7-.8.8.8,0,0,1,.7-.8A.8.8,0,0,1,16.8,9.2Z"/><path class="cls-1" d="M19,9.5a3.4,3.4,0,0,0-1.1-2.3,4,4,0,0,0-2.4-1c-1.5,0-5.2-.1-6.4.1A3.4,3.4,0,0,0,6.2,8.9a35.6,35.6,0,0,0,0,7.3,3.3,3.3,0,0,0,2.6,2.9,43.3,43.3,0,0,0,7.2,0,3.3,3.3,0,0,0,2.9-2.6A41.1,41.1,0,0,0,19,9.5ZM17.8,16a2.3,2.3,0,0,1-2.1,2,38.5,38.5,0,0,1-6.8-.1A2.3,2.3,0,0,1,7.3,16a48.4,48.4,0,0,1,0-6.6A2.2,2.2,0,0,1,9.4,7.5a34.2,34.2,0,0,1,6.4,0,2.2,2.2,0,0,1,2,2.1A45.5,45.5,0,0,1,17.8,16ZM12.5,9.4a3.4,3.4,0,0,0,0,6.7,3.4,3.4,0,1,0,0-6.7Zm0,5.5a2.1,2.1,0,0,1-2.1-2.2,2.2,2.2,0,1,1,4.3,0A2.2,2.2,0,0,1,12.5,14.9Zm4.3-5.7a.7.7,0,0,1-.8.8.7.7,0,0,1-.7-.8.8.8,0,0,1,.7-.8A.8.8,0,0,1,16.8,9.2Z"/></svg>