<svg id="Capa_1" data-name="Capa 1" xmlns="http://www.w3.org/2000/svg" viewBox="0 0 25.4 25.4"><defs><style>.cls-1,.cls-2{fill:#696969;}.cls-2{fill-rule:evenodd;}</style></defs><title>icono</title><path class="cls-1" d="M12.2,2.3A10.7,10.7,0,1,1,1.5,12.9,10.7,10.7,0,0,1,12.2,2.3m0-1.7A12.4,12.4,0,1,0,24.6,12.9,12.4,12.4,0,0,0,12.2.6Z"/><path class="cls-2" d="M11.3,15.8h0a12,12,0,0,1-1.1,3.4l-.9,1.3H9.2c-.1,0-.1-.1-.1-.2A5.5,5.5,0,0,1,9,18.7c0-.9.1-1.1,1.1-5.6.1,0,0-.1,0-.1a3.8,3.8,0,0,1-.1-2.1c.5-1.5,2.2-1.6,2.5-.4s-.3,1.8-.7,3.3S13,15.9,14.2,15s1.6-2.8,1.5-4.2-3.2-3.4-5.2-2.5-2.7,3.8-1.7,5,.2.3.2.5-.1.5-.2.7-.2.3-.4.2a2.2,2.2,0,0,1-.9-.7,4.3,4.3,0,0,1,0-4.9,5.7,5.7,0,0,1,5.7-2.5,4.7,4.7,0,0,1,4.4,3.9,6.1,6.1,0,0,1-1.2,4.7c-1.4,1.8-3.8,1.9-4.9.8Z"/></svg>