<svg id="Capa_1" data-name="Capa 1" xmlns="http://www.w3.org/2000/svg" xmlns:xlink="http://www.w3.org/1999/xlink" viewBox="0 0 28 30"><defs><style>.cls-1{fill:url(#Degradado_sin_nombre_13);}.cls-2{fill:#fff;}</style><linearGradient id="Degradado_sin_nombre_13" x1="40.29" y1="18.51" x2="23.32" y2="1.54" gradientTransform="translate(46 26) rotate(180)" gradientUnits="userSpaceOnUse"><stop offset="0" stop-color="#fff"/><stop offset="0" stop-color="#fc6246"/><stop offset="0.99" stop-color="#dc143c"/></linearGradient></defs><title>iconos</title><circle class="cls-1" cx="14.2" cy="16" r="12"/><polygon class="cls-2" points="6.6 12.8 6.6 20.3 11.1 16.5 6.6 12.8"/><path class="cls-2" d="M20.6,10.4H7.8a1.2,1.2,0,0,0-1.2,1l6,5,1,.8a.9.9,0,0,0,1.2,0l1.1-.9,5.9-4.9A1.2,1.2,0,0,0,20.6,10.4Z"/><polygon class="cls-2" points="21.8 20.3 21.8 12.8 17.3 16.5 21.8 20.3"/><path class="cls-2" d="M15.6,17.9l-.8.7a.9.9,0,0,1-1.2,0l-1.1-.9-.6-.5L7,21.3l.8.2H20.6l.8-.2-4.9-4.1Z"/></svg>