<svg id="Capa_1" data-name="Capa 1" xmlns="http://www.w3.org/2000/svg" xmlns:xlink="http://www.w3.org/1999/xlink" viewBox="0 0 29 26"><defs><style>.cls-1{fill:url(#Degradado_sin_nombre_13);}.cls-2{fill:#fff;}</style><linearGradient id="Degradado_sin_nombre_13" x1="149.49" y1="4.51" x2="132.51" y2="21.49" gradientTransform="matrix(-1, 0, 0, 1, 156, 0)" gradientUnits="userSpaceOnUse"><stop offset="0" stop-color="#fff"/><stop offset="0" stop-color="#fc6246"/><stop offset="0.99" stop-color="#dc143c"/></linearGradient></defs><title>iconos</title><circle class="cls-1" cx="15" cy="13" r="12"/><path class="cls-2" d="M13.2,10.8a2.1,2.1,0,0,0,.4-.7c.4-.9.3-1.1.3-1.1a11.7,11.7,0,0,0-1.6-2.1,7.4,7.4,0,0,0-2-1.5,1.6,1.6,0,0,0-1.6.4h0l-.3.3Z"/><path class="cls-2" d="M22.8,17.9a7.4,7.4,0,0,0-1.5-2,6.4,6.4,0,0,0-2.1-1.5s-.1-.2-1.1.2a1.3,1.3,0,0,0-.7.5l4.7,4.7.3-.3h0A1.6,1.6,0,0,0,22.8,17.9Z"/><path class="cls-2" d="M16.9,15.8a.9.9,0,0,1-.7.3,4.3,4.3,0,0,1-2.7-1.3c-.7-.7-1.8-2.8-1-3.4h.1L8,6.7a3.9,3.9,0,0,0-.7,1.9s-.1,3.9,4.2,8.2S19.3,21,19.7,21h0a3.4,3.4,0,0,0,1.9-.7L17,15.7Z"/></svg>